<?xml version="1.0" encoding="UTF-8"?>
<svg width="300" height="360" viewBox="0 0 300 360" xmlns="http://www.w3.org/2000/svg">
  <defs>
    <linearGradient id="bg-41" x1="0%" y1="0%" x2="100%" y2="100%">
      <stop offset="0%" stop-color="#d2f1ff" />
      <stop offset="55%" stop-color="#ffd7f6" />
      <stop offset="100%" stop-color="#fff6d5" />
    </linearGradient>
    <filter id="noise" x="0" y="0">
      <feTurbulence type="fractalNoise" baseFrequency="0.9" numOctaves="2" result="noise" />
      <feColorMatrix type="matrix" values="0 0 0 0 0.2  0 0 0 0 0.18  0 0 0 0 0.25  0 0 0 0.05 0" />
    </filter>
    <filter id="glow" x="-10" y="-10" width="140" height="140">
      <feGaussianBlur stdDeviation="2.2" result="coloredBlur" />
      <feMerge>
        <feMergeNode in="coloredBlur" />
        <feMergeNode in="SourceGraphic" />
      </feMerge>
    </filter>
  </defs>
  <rect x="0" y="0" width="300" height="360" fill="url(#bg-41)" rx="32" />
  <rect x="12" y="12" width="276" height="336" rx="28" fill="rgba(255,255,255,0.35)" />
  <rect x="18" y="18" width="264" height="324" rx="24" fill="rgba(255,255,255,0.42)" filter="url(#noise)" opacity="0.35" />
  <circle cx="225.34" cy="271.38" r="2.56" fill="white" opacity="0.69" />
<circle cx="69.73" cy="171.58" r="1.23" fill="white" opacity="0.68" />
<circle cx="149.12" cy="182.97" r="2.13" fill="white" opacity="0.72" />
<circle cx="205.49" cy="183.77" r="2.09" fill="white" opacity="0.59" />
<circle cx="160.57" cy="190.06" r="2.62" fill="white" opacity="0.42" />
<circle cx="142.51" cy="124.35" r="2.79" fill="white" opacity="0.37" />
<circle cx="246.85" cy="84.93" r="1.55" fill="white" opacity="0.58" />
<circle cx="162.13" cy="293.16" r="2.88" fill="white" opacity="0.63" />
<circle cx="126.81" cy="159.39" r="1.20" fill="white" opacity="0.70" />
  <text x="50%" y="58" text-anchor="middle" font-family="'Nunito', 'Segoe UI', sans-serif" font-size="18" fill="rgba(25, 20, 38, 0.82)">
    Hexagram 41
  </text>
  <text x="50%" y="86" text-anchor="middle" font-family="'Nunito', 'Segoe UI', sans-serif" font-size="14" fill="rgba(25, 20, 38, 0.66)">
    Sun / Decrease
  </text>
  
    <rect x="40" y="50" width="90" height="10" rx="6" fill="rgba(25, 20, 38, 0.78)" filter="url(#glow)" />
    <rect x="170" y="50" width="90" height="10" rx="6" fill="rgba(25, 20, 38, 0.78)" filter="url(#glow)" />
  
<rect x="40" y="78" width="220" height="10" rx="6" fill="rgba(25, 20, 38, 0.88)" filter="url(#glow)" />
<rect x="40" y="106" width="220" height="10" rx="6" fill="rgba(25, 20, 38, 0.88)" filter="url(#glow)" />

    <rect x="40" y="134" width="90" height="10" rx="6" fill="rgba(25, 20, 38, 0.78)" filter="url(#glow)" />
    <rect x="170" y="134" width="90" height="10" rx="6" fill="rgba(25, 20, 38, 0.78)" filter="url(#glow)" />
  

    <rect x="40" y="162" width="90" height="10" rx="6" fill="rgba(25, 20, 38, 0.78)" filter="url(#glow)" />
    <rect x="170" y="162" width="90" height="10" rx="6" fill="rgba(25, 20, 38, 0.78)" filter="url(#glow)" />
  
<rect x="40" y="190" width="220" height="10" rx="6" fill="rgba(25, 20, 38, 0.88)" filter="url(#glow)" />
</svg>