<?xml version="1.0" encoding="UTF-8"?>
<svg width="300" height="360" viewBox="0 0 300 360" xmlns="http://www.w3.org/2000/svg">
  <defs>
    <linearGradient id="bg-36" x1="0%" y1="0%" x2="100%" y2="100%">
      <stop offset="0%" stop-color="#fde1f3" />
      <stop offset="55%" stop-color="#ffe7d6" />
      <stop offset="100%" stop-color="#f6f8ff" />
    </linearGradient>
    <filter id="noise" x="0" y="0">
      <feTurbulence type="fractalNoise" baseFrequency="0.9" numOctaves="2" result="noise" />
      <feColorMatrix type="matrix" values="0 0 0 0 0.2  0 0 0 0 0.18  0 0 0 0 0.25  0 0 0 0.05 0" />
    </filter>
    <filter id="glow" x="-10" y="-10" width="140" height="140">
      <feGaussianBlur stdDeviation="2.2" result="coloredBlur" />
      <feMerge>
        <feMergeNode in="coloredBlur" />
        <feMergeNode in="SourceGraphic" />
      </feMerge>
    </filter>
  </defs>
  <rect x="0" y="0" width="300" height="360" fill="url(#bg-36)" rx="32" />
  <rect x="12" y="12" width="276" height="336" rx="28" fill="rgba(255,255,255,0.35)" />
  <rect x="18" y="18" width="264" height="324" rx="24" fill="rgba(255,255,255,0.42)" filter="url(#noise)" opacity="0.35" />
  <circle cx="212.98" cy="303.16" r="1.34" fill="white" opacity="0.37" />
<circle cx="139.76" cy="207.72" r="2.37" fill="white" opacity="0.37" />
<circle cx="209.47" cy="264.56" r="2.50" fill="white" opacity="0.58" />
<circle cx="125.80" cy="312.09" r="1.46" fill="white" opacity="0.78" />
<circle cx="175.13" cy="36.64" r="2.62" fill="white" opacity="0.42" />
<circle cx="229.03" cy="142.85" r="1.54" fill="white" opacity="0.57" />
<circle cx="98.70" cy="108.23" r="1.25" fill="white" opacity="0.74" />
<circle cx="94.07" cy="330.09" r="2.36" fill="white" opacity="0.46" />
<circle cx="227.93" cy="56.54" r="1.20" fill="white" opacity="0.76" />
<circle cx="21.21" cy="45.98" r="1.72" fill="white" opacity="0.69" />
<circle cx="56.27" cy="247.00" r="2.13" fill="white" opacity="0.37" />
<circle cx="114.80" cy="79.80" r="2.98" fill="white" opacity="0.41" />
  <text x="50%" y="58" text-anchor="middle" font-family="'Nunito', 'Segoe UI', sans-serif" font-size="18" fill="rgba(25, 20, 38, 0.82)">
    Hexagram 36
  </text>
  <text x="50%" y="86" text-anchor="middle" font-family="'Nunito', 'Segoe UI', sans-serif" font-size="14" fill="rgba(25, 20, 38, 0.66)">
    Ming I / Darkening of the Light
  </text>
  <rect x="40" y="50" width="220" height="10" rx="6" fill="rgba(25, 20, 38, 0.88)" filter="url(#glow)" />
<rect x="40" y="78" width="220" height="10" rx="6" fill="rgba(25, 20, 38, 0.88)" filter="url(#glow)" />

    <rect x="40" y="106" width="90" height="10" rx="6" fill="rgba(25, 20, 38, 0.78)" filter="url(#glow)" />
    <rect x="170" y="106" width="90" height="10" rx="6" fill="rgba(25, 20, 38, 0.78)" filter="url(#glow)" />
  

    <rect x="40" y="134" width="90" height="10" rx="6" fill="rgba(25, 20, 38, 0.78)" filter="url(#glow)" />
    <rect x="170" y="134" width="90" height="10" rx="6" fill="rgba(25, 20, 38, 0.78)" filter="url(#glow)" />
  

    <rect x="40" y="162" width="90" height="10" rx="6" fill="rgba(25, 20, 38, 0.78)" filter="url(#glow)" />
    <rect x="170" y="162" width="90" height="10" rx="6" fill="rgba(25, 20, 38, 0.78)" filter="url(#glow)" />
  
<rect x="40" y="190" width="220" height="10" rx="6" fill="rgba(25, 20, 38, 0.88)" filter="url(#glow)" />
</svg>