<?xml version="1.0" encoding="UTF-8"?>
<svg width="300" height="360" viewBox="0 0 300 360" xmlns="http://www.w3.org/2000/svg">
  <defs>
    <linearGradient id="bg-56" x1="0%" y1="0%" x2="100%" y2="100%">
      <stop offset="0%" stop-color="#fde1f3" />
      <stop offset="55%" stop-color="#ffe7d6" />
      <stop offset="100%" stop-color="#f6f8ff" />
    </linearGradient>
    <filter id="noise" x="0" y="0">
      <feTurbulence type="fractalNoise" baseFrequency="0.9" numOctaves="2" result="noise" />
      <feColorMatrix type="matrix" values="0 0 0 0 0.2  0 0 0 0 0.18  0 0 0 0 0.25  0 0 0 0.05 0" />
    </filter>
    <filter id="glow" x="-10" y="-10" width="140" height="140">
      <feGaussianBlur stdDeviation="2.2" result="coloredBlur" />
      <feMerge>
        <feMergeNode in="coloredBlur" />
        <feMergeNode in="SourceGraphic" />
      </feMerge>
    </filter>
  </defs>
  <rect x="0" y="0" width="300" height="360" fill="url(#bg-56)" rx="32" />
  <rect x="12" y="12" width="276" height="336" rx="28" fill="rgba(255,255,255,0.35)" />
  <rect x="18" y="18" width="264" height="324" rx="24" fill="rgba(255,255,255,0.42)" filter="url(#noise)" opacity="0.35" />
  <circle cx="262.42" cy="176.03" r="2.61" fill="white" opacity="0.77" />
<circle cx="119.63" cy="63.13" r="1.42" fill="white" opacity="0.69" />
<circle cx="228.06" cy="258.20" r="2.83" fill="white" opacity="0.67" />
<circle cx="184.57" cy="118.81" r="2.20" fill="white" opacity="0.47" />
<circle cx="116.87" cy="330.32" r="2.61" fill="white" opacity="0.45" />
<circle cx="142.94" cy="68.87" r="2.93" fill="white" opacity="0.69" />
<circle cx="171.31" cy="335.03" r="2.47" fill="white" opacity="0.56" />
<circle cx="106.33" cy="182.37" r="2.61" fill="white" opacity="0.67" />
<circle cx="83.45" cy="147.95" r="1.20" fill="white" opacity="0.54" />
  <text x="50%" y="58" text-anchor="middle" font-family="'Nunito', 'Segoe UI', sans-serif" font-size="18" fill="rgba(25, 20, 38, 0.82)">
    Hexagram 56
  </text>
  <text x="50%" y="86" text-anchor="middle" font-family="'Nunito', 'Segoe UI', sans-serif" font-size="14" fill="rgba(25, 20, 38, 0.66)">
    Lü / The Wanderer
  </text>
  
    <rect x="40" y="50" width="90" height="10" rx="6" fill="rgba(25, 20, 38, 0.78)" filter="url(#glow)" />
    <rect x="170" y="50" width="90" height="10" rx="6" fill="rgba(25, 20, 38, 0.78)" filter="url(#glow)" />
  

    <rect x="40" y="78" width="90" height="10" rx="6" fill="rgba(25, 20, 38, 0.78)" filter="url(#glow)" />
    <rect x="170" y="78" width="90" height="10" rx="6" fill="rgba(25, 20, 38, 0.78)" filter="url(#glow)" />
  
<rect x="40" y="106" width="220" height="10" rx="6" fill="rgba(25, 20, 38, 0.88)" filter="url(#glow)" />
<rect x="40" y="134" width="220" height="10" rx="6" fill="rgba(25, 20, 38, 0.88)" filter="url(#glow)" />
<rect x="40" y="162" width="220" height="10" rx="6" fill="rgba(25, 20, 38, 0.88)" filter="url(#glow)" />

    <rect x="40" y="190" width="90" height="10" rx="6" fill="rgba(25, 20, 38, 0.78)" filter="url(#glow)" />
    <rect x="170" y="190" width="90" height="10" rx="6" fill="rgba(25, 20, 38, 0.78)" filter="url(#glow)" />
  
</svg>