<?xml version="1.0" encoding="UTF-8"?>
<svg width="300" height="360" viewBox="0 0 300 360" xmlns="http://www.w3.org/2000/svg">
  <defs>
    <linearGradient id="bg-50" x1="0%" y1="0%" x2="100%" y2="100%">
      <stop offset="0%" stop-color="#fee4e5" />
      <stop offset="55%" stop-color="#e6f2ff" />
      <stop offset="100%" stop-color="#f9e3ff" />
    </linearGradient>
    <filter id="noise" x="0" y="0">
      <feTurbulence type="fractalNoise" baseFrequency="0.9" numOctaves="2" result="noise" />
      <feColorMatrix type="matrix" values="0 0 0 0 0.2  0 0 0 0 0.18  0 0 0 0 0.25  0 0 0 0.05 0" />
    </filter>
    <filter id="glow" x="-10" y="-10" width="140" height="140">
      <feGaussianBlur stdDeviation="2.2" result="coloredBlur" />
      <feMerge>
        <feMergeNode in="coloredBlur" />
        <feMergeNode in="SourceGraphic" />
      </feMerge>
    </filter>
  </defs>
  <rect x="0" y="0" width="300" height="360" fill="url(#bg-50)" rx="32" />
  <rect x="12" y="12" width="276" height="336" rx="28" fill="rgba(255,255,255,0.35)" />
  <rect x="18" y="18" width="264" height="324" rx="24" fill="rgba(255,255,255,0.42)" filter="url(#noise)" opacity="0.35" />
  <circle cx="143.59" cy="22.17" r="2.59" fill="white" opacity="0.47" />
<circle cx="99.67" cy="298.51" r="2.43" fill="white" opacity="0.68" />
<circle cx="196.49" cy="164.11" r="2.91" fill="white" opacity="0.78" />
<circle cx="36.94" cy="336.79" r="2.15" fill="white" opacity="0.70" />
<circle cx="134.35" cy="274.22" r="2.98" fill="white" opacity="0.44" />
<circle cx="194.77" cy="155.07" r="2.88" fill="white" opacity="0.65" />
<circle cx="201.53" cy="106.99" r="2.47" fill="white" opacity="0.57" />
<circle cx="180.65" cy="290.68" r="2.72" fill="white" opacity="0.65" />
<circle cx="48.79" cy="88.52" r="1.20" fill="white" opacity="0.69" />
<circle cx="122.79" cy="180.52" r="2.82" fill="white" opacity="0.37" />
<circle cx="200.38" cy="33.06" r="2.59" fill="white" opacity="0.80" />
<circle cx="50.56" cy="120.84" r="1.57" fill="white" opacity="0.35" />
<circle cx="240.81" cy="179.24" r="2.12" fill="white" opacity="0.61" />
  <text x="50%" y="58" text-anchor="middle" font-family="'Nunito', 'Segoe UI', sans-serif" font-size="18" fill="rgba(25, 20, 38, 0.82)">
    Hexagram 50
  </text>
  <text x="50%" y="86" text-anchor="middle" font-family="'Nunito', 'Segoe UI', sans-serif" font-size="14" fill="rgba(25, 20, 38, 0.66)">
    Ting / The Cauldron
  </text>
  <rect x="40" y="50" width="220" height="10" rx="6" fill="rgba(25, 20, 38, 0.88)" filter="url(#glow)" />

    <rect x="40" y="78" width="90" height="10" rx="6" fill="rgba(25, 20, 38, 0.78)" filter="url(#glow)" />
    <rect x="170" y="78" width="90" height="10" rx="6" fill="rgba(25, 20, 38, 0.78)" filter="url(#glow)" />
  
<rect x="40" y="106" width="220" height="10" rx="6" fill="rgba(25, 20, 38, 0.88)" filter="url(#glow)" />
<rect x="40" y="134" width="220" height="10" rx="6" fill="rgba(25, 20, 38, 0.88)" filter="url(#glow)" />
<rect x="40" y="162" width="220" height="10" rx="6" fill="rgba(25, 20, 38, 0.88)" filter="url(#glow)" />

    <rect x="40" y="190" width="90" height="10" rx="6" fill="rgba(25, 20, 38, 0.78)" filter="url(#glow)" />
    <rect x="170" y="190" width="90" height="10" rx="6" fill="rgba(25, 20, 38, 0.78)" filter="url(#glow)" />
  
</svg>