<?xml version="1.0" encoding="UTF-8"?>
<svg width="300" height="360" viewBox="0 0 300 360" xmlns="http://www.w3.org/2000/svg">
  <defs>
    <linearGradient id="bg-24" x1="0%" y1="0%" x2="100%" y2="100%">
      <stop offset="0%" stop-color="#fde1f3" />
      <stop offset="55%" stop-color="#ffe7d6" />
      <stop offset="100%" stop-color="#f6f8ff" />
    </linearGradient>
    <filter id="noise" x="0" y="0">
      <feTurbulence type="fractalNoise" baseFrequency="0.9" numOctaves="2" result="noise" />
      <feColorMatrix type="matrix" values="0 0 0 0 0.2  0 0 0 0 0.18  0 0 0 0 0.25  0 0 0 0.05 0" />
    </filter>
    <filter id="glow" x="-10" y="-10" width="140" height="140">
      <feGaussianBlur stdDeviation="2.2" result="coloredBlur" />
      <feMerge>
        <feMergeNode in="coloredBlur" />
        <feMergeNode in="SourceGraphic" />
      </feMerge>
    </filter>
  </defs>
  <rect x="0" y="0" width="300" height="360" fill="url(#bg-24)" rx="32" />
  <rect x="12" y="12" width="276" height="336" rx="28" fill="rgba(255,255,255,0.35)" />
  <rect x="18" y="18" width="264" height="324" rx="24" fill="rgba(255,255,255,0.42)" filter="url(#noise)" opacity="0.35" />
  <circle cx="235.32" cy="315.44" r="1.29" fill="white" opacity="0.66" />
<circle cx="99.84" cy="38.48" r="2.58" fill="white" opacity="0.37" />
<circle cx="146.31" cy="76.37" r="2.67" fill="white" opacity="0.36" />
<circle cx="90.53" cy="108.06" r="1.37" fill="white" opacity="0.79" />
<circle cx="210.09" cy="244.42" r="1.55" fill="white" opacity="0.39" />
<circle cx="72.69" cy="315.23" r="1.43" fill="white" opacity="0.49" />
<circle cx="159.13" cy="292.15" r="1.23" fill="white" opacity="0.76" />
<circle cx="242.71" cy="226.73" r="2.58" fill="white" opacity="0.42" />
<circle cx="158.62" cy="257.69" r="1.20" fill="white" opacity="0.62" />
<circle cx="194.14" cy="250.65" r="1.55" fill="white" opacity="0.58" />
<circle cx="44.18" cy="64.67" r="1.22" fill="white" opacity="0.51" />
<circle cx="169.87" cy="273.20" r="2.38" fill="white" opacity="0.39" />
<circle cx="177.99" cy="237.23" r="2.22" fill="white" opacity="0.67" />
  <text x="50%" y="58" text-anchor="middle" font-family="'Nunito', 'Segoe UI', sans-serif" font-size="18" fill="rgba(25, 20, 38, 0.82)">
    Hexagram 24
  </text>
  <text x="50%" y="86" text-anchor="middle" font-family="'Nunito', 'Segoe UI', sans-serif" font-size="14" fill="rgba(25, 20, 38, 0.66)">
    Fu / Return
  </text>
  <rect x="40" y="50" width="220" height="10" rx="6" fill="rgba(25, 20, 38, 0.88)" filter="url(#glow)" />

    <rect x="40" y="78" width="90" height="10" rx="6" fill="rgba(25, 20, 38, 0.78)" filter="url(#glow)" />
    <rect x="170" y="78" width="90" height="10" rx="6" fill="rgba(25, 20, 38, 0.78)" filter="url(#glow)" />
  

    <rect x="40" y="106" width="90" height="10" rx="6" fill="rgba(25, 20, 38, 0.78)" filter="url(#glow)" />
    <rect x="170" y="106" width="90" height="10" rx="6" fill="rgba(25, 20, 38, 0.78)" filter="url(#glow)" />
  

    <rect x="40" y="134" width="90" height="10" rx="6" fill="rgba(25, 20, 38, 0.78)" filter="url(#glow)" />
    <rect x="170" y="134" width="90" height="10" rx="6" fill="rgba(25, 20, 38, 0.78)" filter="url(#glow)" />
  

    <rect x="40" y="162" width="90" height="10" rx="6" fill="rgba(25, 20, 38, 0.78)" filter="url(#glow)" />
    <rect x="170" y="162" width="90" height="10" rx="6" fill="rgba(25, 20, 38, 0.78)" filter="url(#glow)" />
  

    <rect x="40" y="190" width="90" height="10" rx="6" fill="rgba(25, 20, 38, 0.78)" filter="url(#glow)" />
    <rect x="170" y="190" width="90" height="10" rx="6" fill="rgba(25, 20, 38, 0.78)" filter="url(#glow)" />
  
</svg>