<?xml version="1.0" encoding="UTF-8"?>
<svg width="300" height="360" viewBox="0 0 300 360" xmlns="http://www.w3.org/2000/svg">
  <defs>
    <linearGradient id="bg-35" x1="0%" y1="0%" x2="100%" y2="100%">
      <stop offset="0%" stop-color="#e8f7e1" />
      <stop offset="55%" stop-color="#ffe9f2" />
      <stop offset="100%" stop-color="#e5f0ff" />
    </linearGradient>
    <filter id="noise" x="0" y="0">
      <feTurbulence type="fractalNoise" baseFrequency="0.9" numOctaves="2" result="noise" />
      <feColorMatrix type="matrix" values="0 0 0 0 0.2  0 0 0 0 0.18  0 0 0 0 0.25  0 0 0 0.05 0" />
    </filter>
    <filter id="glow" x="-10" y="-10" width="140" height="140">
      <feGaussianBlur stdDeviation="2.2" result="coloredBlur" />
      <feMerge>
        <feMergeNode in="coloredBlur" />
        <feMergeNode in="SourceGraphic" />
      </feMerge>
    </filter>
  </defs>
  <rect x="0" y="0" width="300" height="360" fill="url(#bg-35)" rx="32" />
  <rect x="12" y="12" width="276" height="336" rx="28" fill="rgba(255,255,255,0.35)" />
  <rect x="18" y="18" width="264" height="324" rx="24" fill="rgba(255,255,255,0.42)" filter="url(#noise)" opacity="0.35" />
  <circle cx="106.51" cy="117.52" r="2.53" fill="white" opacity="0.39" />
<circle cx="49.77" cy="86.95" r="2.24" fill="white" opacity="0.67" />
<circle cx="117.54" cy="88.88" r="2.22" fill="white" opacity="0.38" />
<circle cx="57.86" cy="81.75" r="2.05" fill="white" opacity="0.37" />
<circle cx="178.04" cy="133.95" r="2.98" fill="white" opacity="0.41" />
<circle cx="194.34" cy="210.55" r="2.73" fill="white" opacity="0.79" />
<circle cx="277.07" cy="176.89" r="1.55" fill="white" opacity="0.59" />
<circle cx="236.46" cy="81.48" r="2.98" fill="white" opacity="0.61" />
<circle cx="92.15" cy="99.97" r="1.20" fill="white" opacity="0.41" />
<circle cx="143.95" cy="196.37" r="1.26" fill="white" opacity="0.45" />
<circle cx="120.26" cy="125.14" r="1.45" fill="white" opacity="0.75" />
<circle cx="249.39" cy="122.59" r="1.28" fill="white" opacity="0.44" />
  <text x="50%" y="58" text-anchor="middle" font-family="'Nunito', 'Segoe UI', sans-serif" font-size="18" fill="rgba(25, 20, 38, 0.82)">
    Hexagram 35
  </text>
  <text x="50%" y="86" text-anchor="middle" font-family="'Nunito', 'Segoe UI', sans-serif" font-size="14" fill="rgba(25, 20, 38, 0.66)">
    Chin / Progress
  </text>
  
    <rect x="40" y="50" width="90" height="10" rx="6" fill="rgba(25, 20, 38, 0.78)" filter="url(#glow)" />
    <rect x="170" y="50" width="90" height="10" rx="6" fill="rgba(25, 20, 38, 0.78)" filter="url(#glow)" />
  

    <rect x="40" y="78" width="90" height="10" rx="6" fill="rgba(25, 20, 38, 0.78)" filter="url(#glow)" />
    <rect x="170" y="78" width="90" height="10" rx="6" fill="rgba(25, 20, 38, 0.78)" filter="url(#glow)" />
  

    <rect x="40" y="106" width="90" height="10" rx="6" fill="rgba(25, 20, 38, 0.78)" filter="url(#glow)" />
    <rect x="170" y="106" width="90" height="10" rx="6" fill="rgba(25, 20, 38, 0.78)" filter="url(#glow)" />
  
<rect x="40" y="134" width="220" height="10" rx="6" fill="rgba(25, 20, 38, 0.88)" filter="url(#glow)" />
<rect x="40" y="162" width="220" height="10" rx="6" fill="rgba(25, 20, 38, 0.88)" filter="url(#glow)" />

    <rect x="40" y="190" width="90" height="10" rx="6" fill="rgba(25, 20, 38, 0.78)" filter="url(#glow)" />
    <rect x="170" y="190" width="90" height="10" rx="6" fill="rgba(25, 20, 38, 0.78)" filter="url(#glow)" />
  
</svg>