<?xml version="1.0" encoding="UTF-8"?>
<svg width="300" height="360" viewBox="0 0 300 360" xmlns="http://www.w3.org/2000/svg">
  <defs>
    <linearGradient id="bg-49" x1="0%" y1="0%" x2="100%" y2="100%">
      <stop offset="0%" stop-color="#d2f1ff" />
      <stop offset="55%" stop-color="#ffd7f6" />
      <stop offset="100%" stop-color="#fff6d5" />
    </linearGradient>
    <filter id="noise" x="0" y="0">
      <feTurbulence type="fractalNoise" baseFrequency="0.9" numOctaves="2" result="noise" />
      <feColorMatrix type="matrix" values="0 0 0 0 0.2  0 0 0 0 0.18  0 0 0 0 0.25  0 0 0 0.05 0" />
    </filter>
    <filter id="glow" x="-10" y="-10" width="140" height="140">
      <feGaussianBlur stdDeviation="2.2" result="coloredBlur" />
      <feMerge>
        <feMergeNode in="coloredBlur" />
        <feMergeNode in="SourceGraphic" />
      </feMerge>
    </filter>
  </defs>
  <rect x="0" y="0" width="300" height="360" fill="url(#bg-49)" rx="32" />
  <rect x="12" y="12" width="276" height="336" rx="28" fill="rgba(255,255,255,0.35)" />
  <rect x="18" y="18" width="264" height="324" rx="24" fill="rgba(255,255,255,0.42)" filter="url(#noise)" opacity="0.35" />
  <circle cx="37.12" cy="156.52" r="1.99" fill="white" opacity="0.50" />
<circle cx="269.67" cy="177.74" r="2.29" fill="white" opacity="0.53" />
<circle cx="104.56" cy="308.43" r="2.62" fill="white" opacity="0.57" />
<circle cx="229.00" cy="106.46" r="2.75" fill="white" opacity="0.74" />
<circle cx="137.26" cy="51.53" r="1.54" fill="white" opacity="0.44" />
<circle cx="160.07" cy="222.76" r="2.27" fill="white" opacity="0.42" />
<circle cx="119.90" cy="175.65" r="2.77" fill="white" opacity="0.42" />
<circle cx="63.04" cy="42.07" r="1.53" fill="white" opacity="0.35" />
<circle cx="173.02" cy="131.95" r="1.20" fill="white" opacity="0.80" />
<circle cx="245.53" cy="330.91" r="2.36" fill="white" opacity="0.58" />
<circle cx="264.37" cy="231.20" r="1.91" fill="white" opacity="0.73" />
<circle cx="185.15" cy="163.62" r="1.67" fill="white" opacity="0.39" />
  <text x="50%" y="58" text-anchor="middle" font-family="'Nunito', 'Segoe UI', sans-serif" font-size="18" fill="rgba(25, 20, 38, 0.82)">
    Hexagram 49
  </text>
  <text x="50%" y="86" text-anchor="middle" font-family="'Nunito', 'Segoe UI', sans-serif" font-size="14" fill="rgba(25, 20, 38, 0.66)">
    Ko / Revolution
  </text>
  <rect x="40" y="50" width="220" height="10" rx="6" fill="rgba(25, 20, 38, 0.88)" filter="url(#glow)" />
<rect x="40" y="78" width="220" height="10" rx="6" fill="rgba(25, 20, 38, 0.88)" filter="url(#glow)" />

    <rect x="40" y="106" width="90" height="10" rx="6" fill="rgba(25, 20, 38, 0.78)" filter="url(#glow)" />
    <rect x="170" y="106" width="90" height="10" rx="6" fill="rgba(25, 20, 38, 0.78)" filter="url(#glow)" />
  
<rect x="40" y="134" width="220" height="10" rx="6" fill="rgba(25, 20, 38, 0.88)" filter="url(#glow)" />
<rect x="40" y="162" width="220" height="10" rx="6" fill="rgba(25, 20, 38, 0.88)" filter="url(#glow)" />

    <rect x="40" y="190" width="90" height="10" rx="6" fill="rgba(25, 20, 38, 0.78)" filter="url(#glow)" />
    <rect x="170" y="190" width="90" height="10" rx="6" fill="rgba(25, 20, 38, 0.78)" filter="url(#glow)" />
  
</svg>