<?xml version="1.0" encoding="UTF-8"?>
<svg width="300" height="360" viewBox="0 0 300 360" xmlns="http://www.w3.org/2000/svg">
  <defs>
    <linearGradient id="bg-47" x1="0%" y1="0%" x2="100%" y2="100%">
      <stop offset="0%" stop-color="#e8f7e1" />
      <stop offset="55%" stop-color="#ffe9f2" />
      <stop offset="100%" stop-color="#e5f0ff" />
    </linearGradient>
    <filter id="noise" x="0" y="0">
      <feTurbulence type="fractalNoise" baseFrequency="0.9" numOctaves="2" result="noise" />
      <feColorMatrix type="matrix" values="0 0 0 0 0.2  0 0 0 0 0.18  0 0 0 0 0.25  0 0 0 0.05 0" />
    </filter>
    <filter id="glow" x="-10" y="-10" width="140" height="140">
      <feGaussianBlur stdDeviation="2.2" result="coloredBlur" />
      <feMerge>
        <feMergeNode in="coloredBlur" />
        <feMergeNode in="SourceGraphic" />
      </feMerge>
    </filter>
  </defs>
  <rect x="0" y="0" width="300" height="360" fill="url(#bg-47)" rx="32" />
  <rect x="12" y="12" width="276" height="336" rx="28" fill="rgba(255,255,255,0.35)" />
  <rect x="18" y="18" width="264" height="324" rx="24" fill="rgba(255,255,255,0.42)" filter="url(#noise)" opacity="0.35" />
  <circle cx="84.17" cy="105.24" r="2.58" fill="white" opacity="0.55" />
<circle cx="89.69" cy="256.20" r="2.03" fill="white" opacity="0.68" />
<circle cx="180.70" cy="277.06" r="2.05" fill="white" opacity="0.61" />
<circle cx="93.12" cy="285.78" r="2.13" fill="white" opacity="0.36" />
<circle cx="143.09" cy="246.16" r="2.26" fill="white" opacity="0.44" />
<circle cx="90.68" cy="38.16" r="2.85" fill="white" opacity="0.41" />
<circle cx="216.63" cy="312.97" r="1.56" fill="white" opacity="0.57" />
<circle cx="87.81" cy="184.84" r="2.77" fill="white" opacity="0.64" />
<circle cx="161.46" cy="218.81" r="1.20" fill="white" opacity="0.55" />
<circle cx="231.02" cy="311.69" r="1.43" fill="white" opacity="0.57" />
<circle cx="132.36" cy="307.47" r="2.36" fill="white" opacity="0.61" />
  <text x="50%" y="58" text-anchor="middle" font-family="'Nunito', 'Segoe UI', sans-serif" font-size="18" fill="rgba(25, 20, 38, 0.82)">
    Hexagram 47
  </text>
  <text x="50%" y="86" text-anchor="middle" font-family="'Nunito', 'Segoe UI', sans-serif" font-size="14" fill="rgba(25, 20, 38, 0.66)">
    K'un / Oppression
  </text>
  
    <rect x="40" y="50" width="90" height="10" rx="6" fill="rgba(25, 20, 38, 0.78)" filter="url(#glow)" />
    <rect x="170" y="50" width="90" height="10" rx="6" fill="rgba(25, 20, 38, 0.78)" filter="url(#glow)" />
  
<rect x="40" y="78" width="220" height="10" rx="6" fill="rgba(25, 20, 38, 0.88)" filter="url(#glow)" />

    <rect x="40" y="106" width="90" height="10" rx="6" fill="rgba(25, 20, 38, 0.78)" filter="url(#glow)" />
    <rect x="170" y="106" width="90" height="10" rx="6" fill="rgba(25, 20, 38, 0.78)" filter="url(#glow)" />
  

    <rect x="40" y="134" width="90" height="10" rx="6" fill="rgba(25, 20, 38, 0.78)" filter="url(#glow)" />
    <rect x="170" y="134" width="90" height="10" rx="6" fill="rgba(25, 20, 38, 0.78)" filter="url(#glow)" />
  
<rect x="40" y="162" width="220" height="10" rx="6" fill="rgba(25, 20, 38, 0.88)" filter="url(#glow)" />
<rect x="40" y="190" width="220" height="10" rx="6" fill="rgba(25, 20, 38, 0.88)" filter="url(#glow)" />
</svg>