<svg xmlns="http://www.w3.org/2000/svg" width="64" height="64" viewBox="0 0 64 64">
  <defs>
    <linearGradient id="bg" x1="0%" y1="0%" x2="100%" y2="100%">
      <stop offset="0%" stop-color="#fff9f0"/>
      <stop offset="100%" stop-color="#f1e3cf"/>
    </linearGradient>
    <linearGradient id="ring" x1="30%" y1="0%" x2="80%" y2="100%">
      <stop offset="0%" stop-color="#cfa568"/>
      <stop offset="100%" stop-color="#a97935"/>
    </linearGradient>
  </defs>
  <rect width="64" height="64" rx="14" fill="url(#bg)"/>
  <polygon points="32 6 49 15 58 32 49 49 32 58 15 49 6 32 15 15" fill="none" stroke="url(#ring)" stroke-width="4" stroke-linejoin="round"/>
  <circle cx="32" cy="32" r="14" fill="rgba(255,255,255,0.85)" stroke="#b9894c" stroke-width="2"/>
  <g fill="#b9894c">
    <rect x="20" y="24" width="24" height="3" rx="1.5"/>
    <rect x="20" y="30" width="24" height="3" rx="1.5"/>
    <rect x="20" y="36" width="24" height="3" rx="1.5"/>
    <rect x="20" y="42" width="24" height="3" rx="1.5"/>
    <rect x="20" y="18" width="24" height="3" rx="1.5"/>
    <rect x="20" y="12" width="24" height="3" rx="1.5"/>
  </g>
  <g fill="#2a1a0c">
    <g transform="translate(32 12)">
      <rect x="-12" y="-1.5" width="24" height="3" rx="1.5"/>
      <rect x="-12" y="4.5" width="24" height="3" rx="1.5"/>
      <rect x="-12" y="10.5" width="24" height="3" rx="1.5"/>
    </g>
    <g transform="rotate(90 32 32)">
      <g transform="translate(32 12)">
        <rect x="-12" y="-1.5" width="24" height="3" rx="1.5"/>
        <rect x="-12" y="4.5" width="24" height="3" rx="1.5"/>
        <rect x="-12" y="10.5" width="24" height="3" rx="1.5"/>
      </g>
    </g>
    <g transform="rotate(180 32 32)">
      <g transform="translate(32 12)">
        <rect x="-12" y="-1.5" width="24" height="3" rx="1.5"/>
        <rect x="-12" y="4.5" width="24" height="3" rx="1.5"/>
        <rect x="-12" y="10.5" width="24" height="3" rx="1.5"/>
      </g>
    </g>
    <g transform="rotate(270 32 32)">
      <g transform="translate(32 12)">
        <rect x="-12" y="-1.5" width="24" height="3" rx="1.5"/>
        <rect x="-12" y="4.5" width="24" height="3" rx="1.5"/>
        <rect x="-12" y="10.5" width="24" height="3" rx="1.5"/>
      </g>
    </g>
  </g>
</svg>

